<svg viewBox="0 0 310 130" xmlns="http://www.w3.org/2000/svg">
  <defs>
    <clipPath id="mc-w">
      <path d="M 14,65 L 14,24 Q 14,9 27,9 L 63,9 Q 75,9 75,24 L 75,29 Q 78,26 82,28 Q 92,32 92,47 Q 92,61 82,64 Q 78,66 75,64 L 75,65 Z"/>
    </clipPath>
  </defs>
  <!-- Mitten body + thumb -->
  <path d="M 14,65 L 14,24 Q 14,9 27,9 L 63,9 Q 75,9 75,24 L 75,29 Q 78,26 82,28 Q 92,32 92,47 Q 92,61 82,64 Q 78,66 75,64 L 75,65 Z" fill="#ffffff"/>
  <!-- Layer lines -->
  <rect x="9" y="30" width="86" height="4.5" fill="rgba(0,0,0,0.12)" clip-path="url(#mc-w)"/>
  <rect x="9" y="40" width="86" height="4.5" fill="rgba(0,0,0,0.12)" clip-path="url(#mc-w)"/>
  <rect x="9" y="50" width="86" height="4.5" fill="rgba(0,0,0,0.12)" clip-path="url(#mc-w)"/>
  <!-- Cuff -->
  <rect x="11" y="59" width="66" height="20" rx="4" fill="rgba(0,0,0,0.15)"/>
  <!-- Radiating arcs -->
  <path d="M 19,81 Q 44,91 69,81" fill="none" stroke="#ffffff" stroke-width="2.2" stroke-linecap="round"/>
  <path d="M 11,90 Q 44,101 77,90" fill="none" stroke="#ffffff" stroke-width="1.7" stroke-linecap="round"/>
  <path d="M 3,99 Q 44,113 85,99" fill="none" stroke="#ffffff" stroke-width="1.3" stroke-linecap="round"/>
  <!-- Wordmark -->
  <text x="110" y="65" font-family="'Poppins', 'Arial Black', sans-serif" font-weight="800" font-size="50" fill="#ffffff" letter-spacing="-1">MITTEN</text>
  <text x="110" y="118" font-family="'Poppins', 'Arial Black', sans-serif" font-weight="800" font-size="50" fill="#ffffff" letter-spacing="-1">MAKES</text>
</svg>
